<?xml version="1.0" standalone="no"?>
<!DOCTYPE svg PUBLIC "-//W3C//DTD SVG 20010904//EN"
 "http://www.w3.org/TR/2001/REC-SVG-20010904/DTD/svg10.dtd">
<svg version="1.0" xmlns="http://www.w3.org/2000/svg"
 width="425.000000pt" height="136.000000pt" viewBox="0 0 425.000000 136.000000"
 preserveAspectRatio="xMidYMid meet">
<metadata>
Created by potrace 1.10, written by Peter Selinger 2001-2011
</metadata>
<g transform="translate(0.000000,136.000000) scale(0.050000,-0.050000)"
fill="#40e0d0" stroke="none">
<path d="M1093 2459 c-71 -56 -73 -160 -5 -214 32 -25 59 -81 81 -166 115
-453 490 -697 1073 -698 359 -1 374 -28 351 -646 l-14 -355 52 0 51 0 -6 468
c-8 603 -31 638 -414 634 -381 -4 -567 53 -767 237 -185 169 -301 453 -216
530 135 122 -42 323 -186 210z m127 -109 c0 -51 -46 -70 -71 -29 -19 31 5 79
40 79 20 0 31 -18 31 -50z"/>
<path d="M5639 1742 c0 -7 0 -249 1 -539 1 -546 6 -582 87 -648 99 -80 157
-10 63 77 -49 46 -50 50 -50 370 l0 323 80 -11 c65 -8 84 -3 100 27 31 56 27
59 -79 59 l-99 0 -6 173 c-6 164 -9 174 -51 177 -25 2 -45 -2 -46 -8z"/>
<path d="M7485 1744 l-45 -7 0 -608 0 -609 50 0 50 0 0 377 0 377 77 23 c152
45 320 13 351 -68 6 -18 12 -185 12 -371 l0 -338 50 0 50 0 0 352 c0 290 -6
362 -33 407 -80 136 -272 173 -471 91 -31 -12 -35 6 -40 183 -6 191 -7 197
-51 191z"/>
<path d="M350 1135 l0 -605 49 0 49 0 -6 365 -6 366 72 29 c113 48 259 39 326
-18 l56 -48 6 -353 c7 -350 7 -353 50 -347 49 7 72 335 43 615 -25 247 -233
339 -517 229 -36 -14 -38 -6 -26 179 l12 193 -54 0 -54 0 0 -605z"/>
<path d="M3600 1142 l0 -597 45 -12 c172 -46 442 0 529 91 71 74 97 515 37
641 -70 147 -267 191 -476 105 -32 -13 -35 3 -35 178 0 191 0 192 -50 192
l-50 0 0 -598z m459 149 c76 -40 81 -59 81 -334 0 -314 -83 -394 -362 -347
l-78 14 0 319 0 319 65 28 c85 37 223 37 294 1z"/>
<path d="M4380 1440 c-59 -59 -54 -170 10 -212 50 -33 50 -33 50 -350 0 -305
2 -318 40 -318 38 0 40 13 40 318 0 317 0 317 50 350 106 70 41 252 -90 252
-33 0 -78 -18 -100 -40z m136 -105 c-3 -25 -19 -45 -36 -45 -16 0 -33 20 -36
45 -5 35 3 45 36 45 33 0 41 -10 36 -45z"/>
<path d="M1460 1370 c0 -44 9 -50 71 -50 93 0 141 -27 180 -102 42 -81 33 -86
-72 -35 -196 94 -417 45 -461 -102 -36 -119 -16 -387 32 -442 90 -101 381
-156 566 -106 l46 12 -6 356 -6 356 -57 60 c-32 33 -95 69 -144 81 -129 33
-149 29 -149 -28z m167 -267 l97 -35 3 -222 3 -223 -85 -13 c-269 -40 -385 45
-385 282 0 251 96 306 367 211z"/>
<path d="M3115 1383 c-14 -54 -2 -63 89 -63 88 0 176 -70 176 -140 0 -39 -3
-40 -60 -10 -161 83 -374 74 -455 -20 -57 -66 -66 -390 -15 -491 58 -110 330
-174 561 -130 l73 14 -7 347 c-6 315 -11 352 -49 404 -78 105 -293 166 -313
89z m190 -289 l75 -32 0 -219 0 -219 -80 -14 c-274 -46 -413 67 -396 322 13
209 157 267 401 162z"/>
<path d="M4935 1391 c-287 -102 -229 -347 108 -462 175 -60 217 -94 217 -182
0 -160 -311 -196 -397 -46 -32 57 -123 85 -123 38 0 -111 158 -219 320 -219
372 0 423 350 70 476 -214 77 -259 107 -266 177 -12 123 174 188 338 118 23
-9 36 -1 44 29 22 83 -161 125 -311 71z"/>
<path d="M6226 1397 c-152 -52 -175 -107 -182 -427 -8 -316 1 -349 102 -411
142 -86 507 -19 453 83 -18 34 -26 35 -75 11 -211 -107 -384 -37 -384 155 l0
90 260 -7 260 -8 0 164 c0 291 -180 436 -434 350z m276 -135 c50 -51 58 -74
58 -170 l0 -112 -210 0 -210 0 0 116 c0 215 214 313 362 166z"/>
<path d="M7007 1399 c-157 -48 -202 -146 -205 -446 -3 -354 79 -445 389 -430
161 8 176 15 156 66 -11 30 -29 33 -110 22 -260 -34 -337 42 -337 334 0 341
135 458 402 346 23 -9 36 -1 44 29 18 71 -201 122 -339 79z"/>
<path d="M2040 948 c0 -309 0 -313 -50 -352 -95 -74 -57 -225 61 -248 145 -27
233 158 119 248 -50 39 -50 43 -50 352 0 299 -2 312 -40 312 -38 0 -40 -13
-40 -312z m76 -455 c9 -42 -54 -68 -77 -32 -19 32 16 84 49 73 12 -4 25 -22
28 -41z"/>
<path d="M5382 632 c-30 -36 3 -112 49 -112 40 0 61 57 36 97 -28 44 -57 49
-85 15z"/>
</g>
</svg>
