<?xml version="1.0" standalone="no"?>
<!DOCTYPE svg PUBLIC "-//W3C//DTD SVG 20010904//EN"
 "http://www.w3.org/TR/2001/REC-SVG-20010904/DTD/svg10.dtd">
<svg version="1.0" xmlns="http://www.w3.org/2000/svg"
 width="300.000000pt" height="96.000000pt" viewBox="0 0 300.000000 96.000000"
 preserveAspectRatio="xMidYMid meet">
<metadata>
Created by potrace 1.10, written by Peter Selinger 2001-2011
</metadata>
<g transform="translate(0.000000,96.000000) scale(0.100000,-0.100000)"
fill="#40e0d0" stroke="none">
<path d="M382 868 c-19 -19 -14 -62 8 -81 11 -9 20 -27 20 -40 0 -39 48 -123
96 -167 72 -66 120 -83 256 -89 160 -8 153 1 152 -201 -2 -153 -1 -160 18
-160 19 0 19 7 16 165 l-3 165 -31 30 c-30 31 -33 31 -141 34 -93 3 -120 8
-165 28 -81 38 -130 94 -163 188 -12 34 -11 39 6 53 23 20 24 50 3 71 -18 19
-55 21 -72 4z m48 -38 c0 -11 -4 -20 -9 -20 -14 0 -23 18 -16 30 10 17 25 11
25 -10z"/>
<path d="M120 405 c0 -208 1 -215 20 -215 19 0 20 7 20 130 l0 130 26 10 c44
17 83 12 110 -15 24 -25 25 -29 22 -140 -3 -104 -1 -115 15 -115 15 0 17 13
17 124 0 116 -1 125 -24 149 -29 31 -88 44 -131 28 -17 -6 -33 -11 -36 -11 -2
0 -3 31 -1 70 3 65 2 70 -17 70 -21 0 -21 -4 -21 -215z"/>
<path d="M1270 406 l0 -213 48 -7 c50 -6 103 0 134 16 36 18 50 66 46 154 -3
76 -6 86 -31 111 -22 23 -36 28 -75 28 -26 0 -57 -3 -68 -8 -21 -7 -21 -6 -16
63 4 66 4 70 -17 70 -21 0 -21 -2 -21 -214z m168 48 c20 -14 22 -23 22 -108 0
-76 -3 -96 -17 -108 -23 -20 -75 -31 -110 -24 l-28 6 1 113 c1 108 2 112 25
124 33 17 80 16 107 -3z"/>
<path d="M1990 425 c0 -195 0 -196 25 -220 43 -44 62 -27 25 23 -18 25 -20 40
-18 132 3 103 3 105 26 102 23 -3 52 13 52 28 0 5 -18 6 -41 3 l-41 -6 3 64
c2 53 0 65 -14 67 -15 3 -17 -14 -17 -193z"/>
<path d="M2630 405 c0 -184 2 -215 15 -215 13 0 15 21 15 130 l0 129 39 12
c44 13 82 7 105 -17 13 -12 16 -40 16 -135 0 -99 3 -119 15 -119 13 0 15 20
15 124 0 117 -1 127 -24 153 -20 23 -32 28 -73 28 -26 0 -58 -4 -70 -8 -22 -8
-23 -7 -23 62 0 56 -3 71 -15 71 -13 0 -15 -31 -15 -215z"/>
<path d="M1546 504 c-22 -21 -20 -51 4 -66 18 -12 20 -24 20 -125 0 -96 2
-113 16 -113 13 0 15 17 13 111 -1 94 1 113 15 121 19 11 21 59 4 76 -17 17
-54 15 -72 -4z m50 -25 c10 -17 -13 -36 -27 -22 -12 12 -4 33 11 33 5 0 12 -5
16 -11z"/>
<path d="M510 486 c0 -11 9 -16 30 -16 32 0 70 -30 70 -55 0 -14 -3 -14 -30 0
-16 8 -51 15 -79 15 -69 0 -91 -28 -91 -116 0 -51 4 -68 23 -89 27 -32 85 -47
157 -39 l55 6 -5 129 c-6 147 -14 163 -87 175 -36 5 -43 4 -43 -10z m69 -97
l31 -11 0 -79 0 -78 -33 -6 c-44 -9 -114 11 -127 35 -13 24 -13 106 0 131 12
22 76 26 129 8z"/>
<path d="M1100 486 c0 -10 9 -16 25 -16 14 0 37 -11 50 -25 39 -38 31 -60 -9
-30 -29 22 -118 20 -147 -4 -21 -17 -24 -27 -24 -95 0 -63 3 -79 21 -96 28
-29 87 -41 157 -33 l59 6 -4 123 c-3 117 -4 125 -29 149 -31 32 -99 46 -99 21z
m63 -99 c28 -12 29 -15 30 -89 2 -77 2 -78 -26 -84 -40 -8 -103 5 -121 25 -22
25 -28 110 -10 139 11 17 24 22 57 22 23 -1 55 -6 70 -13z"/>
<path d="M1723 481 c-35 -22 -48 -50 -39 -85 7 -29 35 -48 103 -70 28 -9 57
-23 63 -31 19 -23 7 -59 -24 -74 -37 -17 -106 0 -113 30 -5 18 -43 28 -43 10
0 -22 45 -62 80 -71 95 -25 170 44 130 120 -5 10 -41 30 -79 45 -84 32 -98 46
-83 80 13 28 69 43 100 26 28 -15 32 -14 32 8 0 35 -77 42 -127 12z"/>
<path d="M2190 489 c-45 -16 -60 -57 -60 -157 0 -104 16 -135 74 -146 41 -8
126 11 126 29 0 21 -10 23 -48 9 -20 -7 -45 -13 -55 -14 -28 0 -67 45 -67 78
l0 28 95 -2 95 -2 0 53 c0 30 -5 66 -12 80 -21 47 -87 67 -148 44z m100 -37
c15 -12 24 -33 27 -65 l6 -47 -83 0 -83 0 6 47 c6 54 33 83 77 83 15 0 38 -8
50 -18z"/>
<path d="M2465 491 c-47 -20 -60 -48 -63 -145 -4 -87 -2 -94 22 -123 28 -34
77 -46 138 -37 26 5 35 10 31 21 -4 11 -15 13 -42 8 -42 -7 -88 7 -107 33 -17
21 -18 142 -3 176 17 36 62 52 110 39 32 -8 39 -8 39 4 0 27 -80 42 -125 24z"/>
<path d="M720 337 c0 -100 -2 -114 -20 -130 -27 -23 -25 -53 5 -73 52 -34 102
21 64 70 -16 20 -19 41 -19 135 0 92 -3 111 -15 111 -12 0 -15 -19 -15 -113z
m28 -164 c-4 -22 -22 -20 -26 1 -2 10 3 16 13 16 10 0 15 -7 13 -17z"/>
<path d="M1897 216 c-7 -16 1 -26 20 -26 7 0 13 9 13 20 0 23 -25 27 -33 6z"/>
</g>
</svg>
